<?xml version="1.0" encoding="UTF-8"?>
<svg width="476px" height="126px" viewBox="0 0 476 126" version="1.1" xmlns="http://www.w3.org/2000/svg" xmlns:xlink="http://www.w3.org/1999/xlink">
    <title>logo-lg</title>
    <g id="Logo" stroke="none" stroke-width="1" fill="none" fill-rule="evenodd">
        <g id="logo-lg">
            <rect id="Rectangle" fill="#F5F5F5" x="0" y="0" width="476" height="126"></rect>
            <polygon id="Rectangle" fill="#F8DC5B" points="129.535386 0 476 0 441.353364 126 94.8888889 126"></polygon>
            <g id="Re" transform="translate(9.333333, 40.444444)" fill="#000000" fill-rule="nonzero">
                <path d="M0,0 C1.07972144,0.0517082179 2.49364238,0.103416436 4.24176281,0.155124654 C5.98988324,0.206832872 7.71229602,0.232686981 9.40900114,0.232686981 C11.8255206,0.232686981 14.1392094,0.206832872 16.3500676,0.155124654 C18.5609258,0.103416436 20.1290926,0.0775623269 21.0545681,0.0775623269 C25.219208,0.0775623269 28.6768874,0.672206833 31.4276063,1.86149584 C34.1783252,3.05078486 36.2349375,4.66666667 37.5974431,6.70914127 C38.9599487,8.75161588 39.6412015,11.0397045 39.6412015,13.5734072 C39.6412015,15.1246537 39.3327097,16.7793167 38.715726,18.5373961 C38.0987423,20.2954755 37.0318747,21.9501385 35.5151232,23.501385 C33.9983716,25.0526316 31.9289055,26.33241 29.3067249,27.3407202 C26.6845442,28.3490305 23.3682569,28.8531856 19.357863,28.8531856 L11.9540588,28.8531856 L11.9540588,27.3019391 L18.5866334,27.3019391 C22.2371202,27.3019391 25.0264006,26.7202216 26.9544746,25.5567867 C28.8825486,24.3933518 30.1936389,22.8421053 30.8877456,20.9030471 C31.5818522,18.9639889 31.9289055,16.8051708 31.9289055,14.4265928 C31.9289055,10.3416436 30.9648685,7.17451524 29.0367945,4.92520776 C27.1087205,2.67590028 23.805287,1.55124654 19.1264941,1.55124654 C16.76139,1.55124654 15.2189308,1.99076639 14.4991165,2.86980609 C13.7793022,3.7488458 13.4193951,5.53277932 13.4193951,8.22160665 L13.4193951,46.6925208 C13.4193951,48.5540166 13.573641,49.9501385 13.8821328,50.8808864 C14.1906247,51.8116343 14.7947545,52.432133 15.6945224,52.7423823 C16.5942903,53.0526316 17.9182344,53.2594645 19.6663548,53.3628809 L19.6663548,54.9141274 C18.4838028,54.810711 17.0056127,54.7460757 15.2317846,54.7202216 C13.4579566,54.6943675 11.6712746,54.6814404 9.8717389,54.6814404 C7.86654194,54.6814404 5.98988324,54.6943675 4.24176281,54.7202216 C2.49364238,54.7460757 1.07972144,54.810711 0,54.9141274 L0,53.3628809 C1.74812043,53.2594645 3.07206458,53.0526316 3.97183245,52.7423823 C4.87160032,52.432133 5.47573017,51.8116343 5.78422201,50.8808864 C6.09271386,49.9501385 6.24695978,48.5540166 6.24695978,46.6925208 L6.24695978,8.22160665 C6.24695978,6.30840259 6.09271386,4.89935365 5.78422201,3.99445983 C5.47573017,3.08956602 4.87160032,2.46906741 3.97183245,2.13296399 C3.07206458,1.79686057 1.74812043,1.60295476 0,1.55124654 L0,0 Z M12.2625507,27.534626 C15.0389772,27.6380425 17.2241278,27.754386 18.8180023,27.8836565 C20.4118768,28.0129271 21.7101133,28.1292705 22.7127118,28.232687 C23.7153103,28.3361034 24.6793473,28.465374 25.6048228,28.6204986 C29.0496483,29.189289 31.5304369,30.2363804 33.0471884,31.7617729 C34.56394,33.2871653 35.6822229,35.6528163 36.4020372,38.8587258 L38.3301112,46.7700831 C38.8442643,49.0452447 39.3712712,50.6869806 39.9111319,51.6952909 C40.4509926,52.7036011 41.2864914,53.1819021 42.4176281,53.1301939 C43.2916883,53.0784857 44.0243564,52.7940905 44.6156325,52.2770083 C45.2069085,51.7599261 45.836746,51.0618652 46.505145,50.1828255 L47.6619894,51.0360111 C46.582268,52.6389658 45.463985,53.867036 44.3071406,54.7202216 C43.1502962,55.5734072 41.5178602,56 39.4098327,56 C37.5074663,56 35.8364688,55.4312096 34.3968402,54.2936288 C32.9572117,53.156048 31.8774902,50.9325946 31.1576759,47.6232687 L29.4609708,39.867036 C28.998233,37.6435826 28.4712261,35.7174515 27.8799501,34.0886427 C27.2886741,32.4598338 26.4660292,31.1800554 25.4120154,30.2493075 C24.3580016,29.3185596 22.8026886,28.8531856 20.7460763,28.8531856 L12.4167966,28.8531856 L12.2625507,27.534626 Z" id="Shape"></path>
                <path d="M67.713959,13.8836565 C72.238506,13.8836565 75.7733084,15.2668513 78.3183661,18.033241 C80.8634238,20.7996307 82.1359526,25.1043398 82.1359526,30.9473684 L54.9115477,30.9473684 L54.8344247,29.4736842 L74.7321484,29.4736842 C74.834979,26.9399815 74.6293178,24.6001847 74.1151647,22.4542936 C73.6010117,20.3084026 72.7912206,18.5891043 71.6857915,17.2963989 C70.5803624,16.0036934 69.1535876,15.3573407 67.4054672,15.3573407 C65.0403631,15.3573407 62.9451893,16.5466297 61.119946,18.9252078 C59.2947026,21.3037858 58.2021273,25.0784857 57.8422201,30.2493075 L58.073589,30.5595568 C57.9707584,31.3351801 57.8936355,32.1883657 57.8422201,33.1191136 C57.7908048,34.0498615 57.7650972,34.9806094 57.7650972,35.9113573 C57.7650972,39.4275162 58.3306656,42.4524469 59.4618023,44.9861496 C60.5929391,47.5198523 62.0711291,49.4459834 63.8963725,50.7645429 C65.7216159,52.0831025 67.6111284,52.7423823 69.5649101,52.7423823 C71.1073693,52.7423823 72.5727055,52.4967682 73.9609188,52.0055402 C75.3491321,51.5143121 76.6345148,50.6999077 77.8170668,49.5623269 C78.9996189,48.4247461 80.027925,46.8993536 80.9019852,44.9861496 L82.4444444,45.6066482 C81.8788761,47.3130194 80.9534005,48.9676824 79.6680179,50.5706371 C78.3826352,52.1735919 76.763053,53.4792244 74.8092714,54.4875346 C72.8554897,55.4958449 70.5932162,56 68.0224509,56 C64.3205488,56 61.1456536,55.1468144 58.4977653,53.4404432 C55.849877,51.734072 53.8189724,49.3684211 52.4050514,46.3434903 C50.9911305,43.3185596 50.28417,39.8411819 50.28417,35.9113573 C50.28417,31.3610342 51.0039843,27.4441367 52.4436129,24.1606648 C53.8832415,20.877193 55.9141461,18.3434903 58.5363268,16.5595568 C61.1585074,14.7756233 64.2177182,13.8836565 67.713959,13.8836565 Z" id="Path"></path>
            </g>
            <g id="highlight" transform="translate(124.444444, 34.222222)" fill="#000000" fill-rule="nonzero">
                <path d="M12.7341246,0.0768175583 L12.7341246,28.8065844 C14.0637922,25.3241884 15.9176557,22.9172382 18.2957151,21.5857339 C20.6737746,20.2542295 23.1669014,19.5884774 25.7750956,19.5884774 C27.7184559,19.5884774 29.3421847,19.8445359 30.6462818,20.3566529 C31.9503789,20.86877 33.0371264,21.5857339 33.9065245,22.5075446 C34.8782047,23.5317787 35.568609,24.8120713 35.9777375,26.3484225 C36.386866,27.8847737 36.5914303,29.9588477 36.5914303,32.5706447 L36.5914303,53.0809328 C36.5914303,55.2318244 37.0389146,56.691358 37.9338832,57.4595336 C38.8288518,58.2277092 40.3247279,58.611797 42.4215114,58.611797 L42.4215114,60.2249657 C41.5521134,60.173754 40.2224457,60.1097394 38.4325085,60.0329218 C36.6425714,59.9561043 34.9037752,59.9176955 33.2161202,59.9176955 C31.5284651,59.9176955 29.8791658,59.9561043 28.2682224,60.0329218 C26.6572789,60.1097394 25.4426786,60.173754 24.6244216,60.2249657 L24.6244216,58.611797 C26.4654999,58.611797 27.769597,58.2277092 28.5367129,57.4595336 C29.3038289,56.691358 29.6873868,55.2318244 29.6873868,53.0809328 L29.6873868,30.8806584 C29.6873868,29.2930956 29.5595342,27.833562 29.3038289,26.5020576 C29.0481236,25.1705533 28.4727866,24.0951075 27.577818,23.2757202 C26.6828494,22.4563329 25.314826,22.0466392 23.4737477,22.0466392 C21.3769642,22.0466392 19.5231007,22.6355738 17.9121572,23.8134431 C16.3012137,24.9913123 15.0354724,26.6300869 14.1149333,28.7297668 C13.1943942,30.8294467 12.7341246,33.2363969 12.7341246,35.9506173 L12.7341246,53.0809328 C12.7341246,55.2318244 13.1176826,56.691358 13.8847985,57.4595336 C14.6519144,58.2277092 15.9560115,58.611797 17.7970898,58.611797 L17.7970898,60.2249657 C16.9788328,60.173754 15.7642325,60.1097394 14.1532891,60.0329218 C12.5423456,59.9561043 10.8930463,59.9176955 9.20539127,59.9176955 C7.5177362,59.9176955 5.77894007,59.9561043 3.98900288,60.0329218 C2.19906569,60.1097394 0.869398064,60.173754 0,60.2249657 L0,58.611797 C2.09678357,58.611797 3.59265965,58.2277092 4.48762824,57.4595336 C5.38259684,56.691358 5.83008114,55.2318244 5.83008114,53.0809328 L5.83008114,9.29492455 C5.83008114,6.99039781 5.42095264,5.2876086 4.60269563,4.18655693 C3.78443863,3.08550526 2.25020675,2.53497942 0,2.53497942 L0,0.9218107 C1.636514,1.07544582 3.22188694,1.15226337 4.75611882,1.15226337 C6.23920964,1.15226337 7.65837413,1.06264289 9.01361228,0.88340192 C10.3688504,0.704160951 11.6090212,0.435299497 12.7341246,0.0768175583 Z" id="Path"></path>
                <path d="M56.2853886,1.45953361 C57.6150562,1.45953361 58.7657301,1.94604481 59.7374103,2.91906722 C60.7090905,3.89208962 61.1949306,5.04435299 61.1949306,6.37585734 C61.1949306,7.70736168 60.7090905,8.85962506 59.7374103,9.83264746 C58.7657301,10.8056699 57.6150562,11.2921811 56.2853886,11.2921811 C54.955721,11.2921811 53.8050471,10.8056699 52.8333669,9.83264746 C51.8616867,8.85962506 51.3758466,7.70736168 51.3758466,6.37585734 C51.3758466,5.04435299 51.8616867,3.89208962 52.8333669,2.91906722 C53.8050471,1.94604481 54.955721,1.45953361 56.2853886,1.45953361 Z M60.2743915,19.81893 L60.2743915,53.0809328 C60.2743915,55.2318244 60.7218758,56.691358 61.6168444,57.4595336 C62.511813,58.2277092 64.007689,58.611797 66.1044726,58.611797 L66.1044726,60.2249657 C65.2350745,60.173754 63.9181922,60.1097394 62.1538255,60.0329218 C60.3894589,59.9561043 58.6123069,59.9176955 56.8223697,59.9176955 C55.0835736,59.9176955 53.319207,59.9561043 51.5292698,60.0329218 C49.7393326,60.1097394 48.4096649,60.173754 47.5402669,60.2249657 L47.5402669,58.611797 C49.6370504,58.611797 51.1329265,58.2277092 52.0278951,57.4595336 C52.9228637,56.691358 53.370348,55.2318244 53.370348,53.0809328 L53.370348,29.037037 C53.370348,26.7325103 52.9612195,25.0297211 52.1429625,23.9286694 C51.3247055,22.8276177 49.7904736,22.2770919 47.5402669,22.2770919 L47.5402669,20.6639232 C49.1767809,20.8175583 50.7621538,20.8943759 52.2963857,20.8943759 C53.7794765,20.8943759 55.198641,20.8047554 56.5538792,20.6255144 C57.9091173,20.4462734 59.1492881,20.177412 60.2743915,19.81893 Z" id="Shape"></path>
                <path d="M85.8751425,74.6666667 C83.1646662,74.6666667 80.607613,74.3850023 78.2039831,73.8216735 C75.8003532,73.2583448 73.869778,72.3749428 72.4122578,71.1714678 C70.9547375,69.9679927 70.2259773,68.4444444 70.2259773,66.600823 C70.2259773,64.8084134 70.9419522,63.2720622 72.373902,61.9917695 C73.8058517,60.7114769 75.7492121,59.7384545 78.2039831,59.0727023 L78.6642527,60.3017833 C77.5391493,60.6602652 76.6441807,61.3772291 75.9793469,62.4526749 C75.3145131,63.5281207 74.9820962,64.7315958 74.9820962,66.0631001 C74.9820962,68.4188386 76.0688437,70.2240512 78.2423389,71.478738 C80.4158341,72.7334248 83.2413778,73.3607682 86.71897,73.3607682 C89.0203178,73.3607682 91.2705246,73.0663009 93.4695903,72.4773663 C95.668656,71.8884316 97.4841637,70.9026063 98.9161135,69.5198903 C100.348063,68.1371742 101.064038,66.3191587 101.064038,64.0658436 C101.064038,62.3758573 100.463131,60.9803384 99.2613156,59.8792867 C98.0595007,58.778235 95.6942265,58.2277092 92.1654932,58.2277092 L86.4888352,58.2277092 C84.8523212,58.2277092 83.2669483,58.0996799 81.7327164,57.8436214 C80.1984845,57.5875629 78.9455285,57.04984 77.9738483,56.2304527 C77.0021681,55.4110654 76.516328,54.1563786 76.516328,52.4663923 C76.516328,50.7251943 77.2323029,49.048011 78.6642527,47.4348422 C80.0962024,45.8216735 82.7299671,44.170096 86.5655468,42.4801097 L87.486086,43.1714678 C85.7472898,44.0932785 84.2386285,45.0278921 82.9601019,45.9753086 C81.6815754,46.9227252 81.0423121,48.0365798 81.0423121,49.3168724 C81.0423121,50.955647 82.2696976,51.7750343 84.7244686,51.7750343 L94.3134178,51.7750343 C96.4613425,51.7750343 98.4430586,52.0823045 100.258566,52.696845 C102.074074,53.3113855 103.54438,54.2844079 104.669483,55.6159122 C105.794586,56.9474166 106.357138,58.6886145 106.357138,60.8395062 C106.357138,63.2464563 105.590022,65.4997714 104.05579,67.5994513 C102.521558,69.6991312 100.232996,71.4019204 97.1901026,72.7078189 C94.1472094,74.0137174 90.375556,74.6666667 85.8751425,74.6666667 Z M86.2587005,43.8628258 C83.7527884,43.8628258 81.4770111,43.4403292 79.4313686,42.5953361 C77.3857261,41.7503429 75.7747826,40.4316415 74.5985382,38.6392318 C73.4222937,36.8468221 72.8341715,34.5422954 72.8341715,31.7256516 C72.8341715,28.9090078 73.4222937,26.604481 74.5985382,24.8120713 C75.7747826,23.0196616 77.3857261,21.7009602 79.4313686,20.8559671 C81.4770111,20.0109739 83.7527884,19.5884774 86.2587005,19.5884774 C88.8157536,19.5884774 91.1043161,20.0109739 93.1243881,20.8559671 C95.1444601,21.7009602 96.7426183,23.0196616 97.9188627,24.8120713 C99.0951072,26.604481 99.6832294,28.9090078 99.6832294,31.7256516 C99.6832294,34.5422954 99.0951072,36.8468221 97.9188627,38.6392318 C96.7426183,40.4316415 95.1444601,41.7503429 93.1243881,42.5953361 C91.1043161,43.4403292 88.8157536,43.8628258 86.2587005,43.8628258 Z M86.2587005,42.4801097 C88.2020608,42.4801097 89.7235075,41.7119342 90.8230403,40.175583 C91.9225731,38.6392318 92.4723396,35.822588 92.4723396,31.7256516 C92.4723396,27.6287151 91.9225731,24.8120713 90.8230403,23.2757202 C89.7235075,21.739369 88.2020608,20.9711934 86.2587005,20.9711934 C84.3664811,20.9711934 82.8578198,21.739369 81.7327164,23.2757202 C80.607613,24.8120713 80.0450614,27.6287151 80.0450614,31.7256516 C80.0450614,35.822588 80.607613,38.6392318 81.7327164,40.175583 C82.8578198,41.7119342 84.3664811,42.4801097 86.2587005,42.4801097 Z M97.30517,25.9643347 L95.9243613,25.4266118 C96.6403362,23.6854138 97.8677217,22.1490626 99.6065178,20.8175583 C101.345314,19.486054 103.160822,18.8203018 105.053041,18.8203018 C106.382709,18.8203018 107.456671,19.1915866 108.274928,19.9341564 C109.093185,20.6767261 109.502313,21.7905807 109.502313,23.2757202 C109.502313,24.863283 109.0804,25.9771376 108.236572,26.617284 C107.392745,27.2574303 106.536132,27.5775034 105.666734,27.5775034 C104.899618,27.5775034 104.183643,27.308642 103.518809,26.7709191 C102.853975,26.2331962 102.470417,25.3754001 102.368135,24.1975309 C102.265853,23.0196616 102.62384,21.5089163 103.442097,19.6652949 L104.439348,19.8957476 C102.291424,20.7151349 100.757192,21.572931 99.8366526,22.4691358 C98.9161135,23.3653406 98.0722859,24.530407 97.30517,25.9643347 Z" id="Shape"></path>
                <path d="M126.051096,0.0768175583 L126.051096,28.8065844 C127.380764,25.3241884 129.234628,22.9172382 131.612687,21.5857339 C133.990746,20.2542295 136.483873,19.5884774 139.092067,19.5884774 C141.035428,19.5884774 142.659156,19.8445359 143.963254,20.3566529 C145.267351,20.86877 146.354098,21.5857339 147.223496,22.5075446 C148.195176,23.5317787 148.885581,24.8120713 149.294709,26.3484225 C149.703838,27.8847737 149.908402,29.9588477 149.908402,32.5706447 L149.908402,53.0809328 C149.908402,55.2318244 150.355886,56.691358 151.250855,57.4595336 C152.145824,58.2277092 153.6417,58.611797 155.738483,58.611797 L155.738483,60.2249657 C154.869085,60.173754 153.539418,60.1097394 151.74948,60.0329218 C149.959543,59.9561043 148.220747,59.9176955 146.533092,59.9176955 C144.845437,59.9176955 143.196138,59.9561043 141.585194,60.0329218 C139.974251,60.1097394 138.75965,60.173754 137.941393,60.2249657 L137.941393,58.611797 C139.782472,58.611797 141.086569,58.2277092 141.853685,57.4595336 C142.620801,56.691358 143.004359,55.2318244 143.004359,53.0809328 L143.004359,30.8806584 C143.004359,29.2930956 142.876506,27.833562 142.620801,26.5020576 C142.365095,25.1705533 141.789758,24.0951075 140.89479,23.2757202 C139.999821,22.4563329 138.631798,22.0466392 136.79072,22.0466392 C134.693936,22.0466392 132.840072,22.6355738 131.229129,23.8134431 C129.618185,24.9913123 128.352444,26.6300869 127.431905,28.7297668 C126.511366,30.8294467 126.051096,33.2363969 126.051096,35.9506173 L126.051096,53.0809328 C126.051096,55.2318244 126.434654,56.691358 127.20177,57.4595336 C127.968886,58.2277092 129.272983,58.611797 131.114062,58.611797 L131.114062,60.2249657 C130.295805,60.173754 129.081204,60.1097394 127.470261,60.0329218 C125.859317,59.9561043 124.210018,59.9176955 122.522363,59.9176955 C120.834708,59.9176955 119.095912,59.9561043 117.305975,60.0329218 C115.516037,60.1097394 114.18637,60.173754 113.316972,60.2249657 L113.316972,58.611797 C115.413755,58.611797 116.909631,58.2277092 117.8046,57.4595336 C118.699569,56.691358 119.147053,55.2318244 119.147053,53.0809328 L119.147053,9.29492455 C119.147053,6.99039781 118.737924,5.2876086 117.919667,4.18655693 C117.10141,3.08550526 115.567179,2.53497942 113.316972,2.53497942 L113.316972,0.9218107 C114.953486,1.07544582 116.538859,1.15226337 118.073091,1.15226337 C119.556181,1.15226337 120.975346,1.06264289 122.330584,0.88340192 C123.685822,0.704160951 124.925993,0.435299497 126.051096,0.0768175583 Z" id="Path"></path>
                <path d="M173.054382,0 L173.054382,53.0809328 C173.054382,55.2318244 173.501866,56.691358 174.396835,57.4595336 C175.291804,58.2277092 176.78768,58.611797 178.884463,58.611797 L178.884463,60.2249657 C178.015065,60.173754 176.698183,60.1097394 174.933816,60.0329218 C173.169449,59.9561043 171.392298,59.9176955 169.60236,59.9176955 C167.863564,59.9176955 166.099198,59.9561043 164.30926,60.0329218 C162.519323,60.1097394 161.189656,60.173754 160.320257,60.2249657 L160.320257,58.611797 C162.417041,58.611797 163.912917,58.2277092 164.807886,57.4595336 C165.702854,56.691358 166.150339,55.2318244 166.150339,53.0809328 L166.150339,9.218107 C166.150339,6.91358025 165.74121,5.21079104 164.922953,4.10973937 C164.104696,3.0086877 162.570464,2.45816187 160.320257,2.45816187 L160.320257,0.844993141 C161.956771,0.998628258 163.542144,1.07544582 165.076376,1.07544582 C166.559467,1.07544582 167.978632,0.985825332 169.33387,0.806584362 C170.689108,0.627343393 171.929279,0.358481939 173.054382,0 Z" id="Path"></path>
                <path d="M193.285322,1.45953361 C194.614989,1.45953361 195.765663,1.94604481 196.737343,2.91906722 C197.709023,3.89208962 198.194864,5.04435299 198.194864,6.37585734 C198.194864,7.70736168 197.709023,8.85962506 196.737343,9.83264746 C195.765663,10.8056699 194.614989,11.2921811 193.285322,11.2921811 C191.955654,11.2921811 190.80498,10.8056699 189.8333,9.83264746 C188.86162,8.85962506 188.37578,7.70736168 188.37578,6.37585734 C188.37578,5.04435299 188.86162,3.89208962 189.8333,2.91906722 C190.80498,1.94604481 191.955654,1.45953361 193.285322,1.45953361 Z M197.274324,19.81893 L197.274324,53.0809328 C197.274324,55.2318244 197.721809,56.691358 198.616777,57.4595336 C199.511746,58.2277092 201.007622,58.611797 203.104406,58.611797 L203.104406,60.2249657 C202.235007,60.173754 200.918125,60.1097394 199.153758,60.0329218 C197.389392,59.9561043 195.61224,59.9176955 193.822303,59.9176955 C192.083507,59.9176955 190.31914,59.9561043 188.529203,60.0329218 C186.739266,60.1097394 185.409598,60.173754 184.5402,60.2249657 L184.5402,58.611797 C186.636983,58.611797 188.132859,58.2277092 189.027828,57.4595336 C189.922797,56.691358 190.370281,55.2318244 190.370281,53.0809328 L190.370281,29.037037 C190.370281,26.7325103 189.961152,25.0297211 189.142895,23.9286694 C188.324638,22.8276177 186.790407,22.2770919 184.5402,22.2770919 L184.5402,20.6639232 C186.176714,20.8175583 187.762087,20.8943759 189.296319,20.8943759 C190.779409,20.8943759 192.198574,20.8047554 193.553812,20.6255144 C194.90905,20.4462734 196.149221,20.177412 197.274324,19.81893 Z" id="Shape"></path>
                <path d="M222.875075,74.6666667 C220.164599,74.6666667 217.607546,74.3850023 215.203916,73.8216735 C212.800286,73.2583448 210.869711,72.3749428 209.412191,71.1714678 C207.95467,69.9679927 207.22591,68.4444444 207.22591,66.600823 C207.22591,64.8084134 207.941885,63.2720622 209.373835,61.9917695 C210.805785,60.7114769 212.749145,59.7384545 215.203916,59.0727023 L215.664186,60.3017833 C214.539082,60.6602652 213.644114,61.3772291 212.97928,62.4526749 C212.314446,63.5281207 211.982029,64.7315958 211.982029,66.0631001 C211.982029,68.4188386 213.068777,70.2240512 215.242272,71.478738 C217.415767,72.7334248 220.241311,73.3607682 223.718903,73.3607682 C226.020251,73.3607682 228.270458,73.0663009 230.469523,72.4773663 C232.668589,71.8884316 234.484097,70.9026063 235.916046,69.5198903 C237.347996,68.1371742 238.063971,66.3191587 238.063971,64.0658436 C238.063971,62.3758573 237.463064,60.9803384 236.261249,59.8792867 C235.059434,58.778235 232.694159,58.2277092 229.165426,58.2277092 L223.488768,58.2277092 C221.852254,58.2277092 220.266881,58.0996799 218.732649,57.8436214 C217.198417,57.5875629 215.945461,57.04984 214.973781,56.2304527 C214.002101,55.4110654 213.516261,54.1563786 213.516261,52.4663923 C213.516261,50.7251943 214.232236,49.048011 215.664186,47.4348422 C217.096135,45.8216735 219.7299,44.170096 223.56548,42.4801097 L224.486019,43.1714678 C222.747223,44.0932785 221.238561,45.0278921 219.960035,45.9753086 C218.681508,46.9227252 218.042245,48.0365798 218.042245,49.3168724 C218.042245,50.955647 219.269631,51.7750343 221.724402,51.7750343 L231.313351,51.7750343 C233.461275,51.7750343 235.442992,52.0823045 237.258499,52.696845 C239.074007,53.3113855 240.544313,54.2844079 241.669416,55.6159122 C242.794519,56.9474166 243.357071,58.6886145 243.357071,60.8395062 C243.357071,63.2464563 242.589955,65.4997714 241.055723,67.5994513 C239.521491,69.6991312 237.232929,71.4019204 234.190036,72.7078189 C231.147142,74.0137174 227.375489,74.6666667 222.875075,74.6666667 Z M223.258633,43.8628258 C220.752721,43.8628258 218.476944,43.4403292 216.431302,42.5953361 C214.385659,41.7503429 212.774716,40.4316415 211.598471,38.6392318 C210.422227,36.8468221 209.834104,34.5422954 209.834104,31.7256516 C209.834104,28.9090078 210.422227,26.604481 211.598471,24.8120713 C212.774716,23.0196616 214.385659,21.7009602 216.431302,20.8559671 C218.476944,20.0109739 220.752721,19.5884774 223.258633,19.5884774 C225.815687,19.5884774 228.104249,20.0109739 230.124321,20.8559671 C232.144393,21.7009602 233.742551,23.0196616 234.918796,24.8120713 C236.09504,26.604481 236.683162,28.9090078 236.683162,31.7256516 C236.683162,34.5422954 236.09504,36.8468221 234.918796,38.6392318 C233.742551,40.4316415 232.144393,41.7503429 230.124321,42.5953361 C228.104249,43.4403292 225.815687,43.8628258 223.258633,43.8628258 Z M223.258633,42.4801097 C225.201994,42.4801097 226.72344,41.7119342 227.822973,40.175583 C228.922506,38.6392318 229.472273,35.822588 229.472273,31.7256516 C229.472273,27.6287151 228.922506,24.8120713 227.822973,23.2757202 C226.72344,21.739369 225.201994,20.9711934 223.258633,20.9711934 C221.366414,20.9711934 219.857753,21.739369 218.732649,23.2757202 C217.607546,24.8120713 217.044994,27.6287151 217.044994,31.7256516 C217.044994,35.822588 217.607546,38.6392318 218.732649,40.175583 C219.857753,41.7119342 221.366414,42.4801097 223.258633,42.4801097 Z M234.305103,25.9643347 L232.924294,25.4266118 C233.640269,23.6854138 234.867655,22.1490626 236.606451,20.8175583 C238.345247,19.486054 240.160755,18.8203018 242.052974,18.8203018 C243.382642,18.8203018 244.456604,19.1915866 245.274861,19.9341564 C246.093118,20.6767261 246.502246,21.7905807 246.502246,23.2757202 C246.502246,24.863283 246.080333,25.9771376 245.236505,26.617284 C244.392678,27.2574303 243.536065,27.5775034 242.666667,27.5775034 C241.899551,27.5775034 241.183576,27.308642 240.518742,26.7709191 C239.853908,26.2331962 239.47035,25.3754001 239.368068,24.1975309 C239.265786,23.0196616 239.623773,21.5089163 240.44203,19.6652949 L241.439281,19.8957476 C239.291357,20.7151349 237.757125,21.572931 236.836586,22.4691358 C235.916046,23.3653406 235.072219,24.530407 234.305103,25.9643347 Z" id="Shape"></path>
                <path d="M263.051029,0.0768175583 L263.051029,28.8065844 C264.380697,25.3241884 266.23456,22.9172382 268.61262,21.5857339 C270.990679,20.2542295 273.483806,19.5884774 276.092,19.5884774 C278.035361,19.5884774 279.659089,19.8445359 280.963186,20.3566529 C282.267284,20.86877 283.354031,21.5857339 284.223429,22.5075446 C285.195109,23.5317787 285.885514,24.8120713 286.294642,26.3484225 C286.703771,27.8847737 286.908335,29.9588477 286.908335,32.5706447 L286.908335,53.0809328 C286.908335,55.2318244 287.355819,56.691358 288.250788,57.4595336 C289.145756,58.2277092 290.641633,58.611797 292.738416,58.611797 L292.738416,60.2249657 C291.869018,60.173754 290.53935,60.1097394 288.749413,60.0329218 C286.959476,59.9561043 285.22068,59.9176955 283.533025,59.9176955 C281.84537,59.9176955 280.196071,59.9561043 278.585127,60.0329218 C276.974184,60.1097394 275.759583,60.173754 274.941326,60.2249657 L274.941326,58.611797 C276.782405,58.611797 278.086502,58.2277092 278.853618,57.4595336 C279.620734,56.691358 280.004292,55.2318244 280.004292,53.0809328 L280.004292,30.8806584 C280.004292,29.2930956 279.876439,27.833562 279.620734,26.5020576 C279.365028,25.1705533 278.789691,24.0951075 277.894723,23.2757202 C276.999754,22.4563329 275.631731,22.0466392 273.790652,22.0466392 C271.693869,22.0466392 269.840005,22.6355738 268.229062,23.8134431 C266.618118,24.9913123 265.352377,26.6300869 264.431838,28.7297668 C263.511299,30.8294467 263.051029,33.2363969 263.051029,35.9506173 L263.051029,53.0809328 C263.051029,55.2318244 263.434587,56.691358 264.201703,57.4595336 C264.968819,58.2277092 266.272916,58.611797 268.113995,58.611797 L268.113995,60.2249657 C267.295737,60.173754 266.081137,60.1097394 264.470194,60.0329218 C262.85925,59.9561043 261.209951,59.9176955 259.522296,59.9176955 C257.834641,59.9176955 256.095845,59.9561043 254.305908,60.0329218 C252.51597,60.1097394 251.186303,60.173754 250.316905,60.2249657 L250.316905,58.611797 C252.413688,58.611797 253.909564,58.2277092 254.804533,57.4595336 C255.699502,56.691358 256.146986,55.2318244 256.146986,53.0809328 L256.146986,9.29492455 C256.146986,6.99039781 255.737857,5.2876086 254.9196,4.18655693 C254.101343,3.08550526 252.567111,2.53497942 250.316905,2.53497942 L250.316905,0.9218107 C251.953419,1.07544582 253.538792,1.15226337 255.073024,1.15226337 C256.556114,1.15226337 257.975279,1.06264289 259.330517,0.88340192 C260.685755,0.704160951 261.925926,0.435299497 263.051029,0.0768175583 Z" id="Path"></path>
                <path d="M310.207738,7.9122085 L310.207738,20.7407407 L321.561054,20.7407407 L321.561054,22.2770919 L310.207738,22.2770919 L310.207738,52.005487 C310.207738,54.4124371 310.642437,56.1024234 311.511835,57.0754458 C312.381233,58.0484682 313.583048,58.5349794 315.11728,58.5349794 C316.651512,58.5349794 317.98118,57.907636 319.106283,56.6529492 C320.231386,55.3982625 321.203067,53.2857796 322.021324,50.3155007 L323.555556,50.6995885 C323.044145,53.6698674 322.034109,56.179241 320.525448,58.2277092 C319.016786,60.2761774 316.702653,61.3004115 313.583048,61.3004115 C311.844252,61.3004115 310.412302,61.0827618 309.287199,60.6474623 C308.162096,60.2121628 307.164845,59.5848194 306.295447,58.7654321 C305.170344,57.5875629 304.390442,56.179241 303.955743,54.5404664 C303.521044,52.9016918 303.303695,50.7251943 303.303695,48.0109739 L303.303695,22.2770919 L295.939382,22.2770919 L295.939382,20.7407407 L303.303695,20.7407407 L303.303695,8.98765432 C304.582221,8.93644262 305.809607,8.8340192 306.985851,8.68038409 C308.162096,8.52674897 309.236058,8.27069044 310.207738,7.9122085 Z" id="Path"></path>
            </g>
            <g id="·" transform="translate(104.222222, 68.444444)" fill="#000000" fill-rule="nonzero">
                <path d="M4.66666667,0 C5.93055556,0 7.02430556,0.461805556 7.94791667,1.38541667 C8.87152778,2.30902778 9.33333333,3.40277778 9.33333333,4.66666667 C9.33333333,5.93055556 8.87152778,7.02430556 7.94791667,7.94791667 C7.02430556,8.87152778 5.93055556,9.33333333 4.66666667,9.33333333 C3.40277778,9.33333333 2.30902778,8.87152778 1.38541667,7.94791667 C0.461805556,7.02430556 0,5.93055556 0,4.66666667 C0,3.40277778 0.461805556,2.30902778 1.38541667,1.38541667 C2.30902778,0.461805556 3.40277778,0 4.66666667,0 Z" id="Path"></path>
            </g>
        </g>
    </g>
</svg>