<?xml version="1.0" encoding="UTF-8"?>
<svg width="128px" height="128px" viewBox="0 0 128 128" version="1.1" xmlns="http://www.w3.org/2000/svg" xmlns:xlink="http://www.w3.org/1999/xlink">
    <title>logo-sm-128</title>
    <g id="Logo" stroke="none" stroke-width="1" fill="none" fill-rule="evenodd">
        <g id="logo-sm-128">
            <rect id="Rectangle-3" fill="#F5F5F5" x="0" y="0" width="128" height="128"></rect>
            <polygon id="Rectangle-2" fill="#F8DC5B" points="128 0 128 128 0 128"></polygon>
            <g id="Rh" transform="translate(14.000000, 35.000000)" fill="#000000" fill-rule="nonzero">
                <path d="M0,5.83437892 C1.09357201,5.88624007 2.52563059,5.93810121 4.29617575,5.98996236 C6.06672091,6.0418235 7.81122864,6.06775408 9.52969894,6.06775408 C11.9772172,6.06775408 14.3205858,6.0418235 16.5598047,5.98996236 C18.7990236,5.93810121 20.3873068,5.91217064 21.3246542,5.91217064 C25.5427177,5.91217064 29.0447518,6.50857382 31.8307567,7.70138018 C34.6167616,8.89418653 36.6997559,10.5148473 38.0797396,12.5633626 C39.4597234,14.6118779 40.1497152,16.9067336 40.1497152,19.4479297 C40.1497152,21.0037641 39.8372661,22.6633208 39.2123678,24.4265997 C38.5874695,26.1898787 37.5069162,27.8494354 35.9707079,29.4052698 C34.4344996,30.9611041 32.3384866,32.2446675 29.6826688,33.2559598 C27.0268511,34.2672522 23.6680228,34.7728984 19.6061839,34.7728984 L12.1074044,34.7728984 L12.1074044,33.217064 L18.825061,33.217064 C22.5223759,33.217064 25.3474369,32.6336261 27.3002441,31.4667503 C29.2530513,30.2998745 30.5809601,28.7440402 31.2839707,26.7992472 C31.9869813,24.8544542 32.3384866,22.6892514 32.3384866,20.3036386 C32.3384866,16.2066081 31.362083,13.0301129 29.4092758,10.7741531 C27.4564687,8.51819322 24.1106591,7.3902133 19.371847,7.3902133 C16.9764036,7.3902133 15.4141579,7.83103304 14.6851098,8.71267252 C13.9560618,9.594312 13.5915378,11.3835215 13.5915378,14.0803011 L13.5915378,52.6649937 C13.5915378,54.531995 13.7477624,55.9322459 14.0602116,56.8657465 C14.3726607,57.7992472 14.9845403,58.4215809 15.8958503,58.7327478 C16.8071603,59.0439147 18.1480879,59.2513593 19.918633,59.3550816 L19.918633,60.9109159 C18.7209113,60.8071936 17.2237592,60.7423672 15.4271766,60.7164366 C13.630594,60.6905061 11.8209927,60.6775408 9.99837266,60.6775408 C7.96745321,60.6775408 6.06672091,60.6905061 4.29617575,60.7164366 C2.52563059,60.7423672 1.09357201,60.8071936 0,60.9109159 L0,59.3550816 C1.77054516,59.2513593 3.11147274,59.0439147 4.02278275,58.7327478 C4.93409276,58.4215809 5.54597234,57.7992472 5.85842148,56.8657465 C6.17087063,55.9322459 6.3270952,54.531995 6.3270952,52.6649937 L6.3270952,14.0803011 C6.3270952,12.1614387 6.17087063,10.7482225 5.85842148,9.84065245 C5.54597234,8.93308239 4.93409276,8.31074864 4.02278275,7.97365119 C3.11147274,7.63655374 1.77054516,7.44207445 0,7.3902133 L0,5.83437892 Z M12.4198535,33.4504391 C15.2318959,33.5541614 17.4450773,33.670849 19.0593979,33.8005019 C20.6737185,33.9301547 21.9886086,34.0468423 23.0040683,34.1505646 C24.0195281,34.2542869 24.9959317,34.3839398 25.9332791,34.5395232 C29.4222945,35.1099958 31.9349064,36.160184 33.4711147,37.6900878 C35.007323,39.2199916 36.1399512,41.5926391 36.8689992,44.8080301 L38.8218063,52.7427854 C39.3425549,55.0246759 39.8763222,56.6712673 40.4231082,57.6825596 C40.9698942,58.6938519 41.8161107,59.1735675 42.9617575,59.1217064 C43.8470301,59.0698453 44.5890968,58.784609 45.1879577,58.2659975 C45.7868186,57.747386 46.4247356,57.0472606 47.1017087,56.1656211 L48.273393,57.02133 C47.179821,58.6290255 46.0471928,59.8607277 44.8755085,60.7164366 C43.7038242,61.5721455 42.0504475,62 39.9153784,62 C37.9886086,62 36.2961758,61.4295274 34.8380797,60.2885822 C33.3799837,59.147637 32.2864117,56.9176077 31.5573637,53.5984944 L29.8388934,45.8193225 C29.3702197,43.5892932 28.8364524,41.6574655 28.2375915,40.0238394 C27.6387307,38.3902133 26.805533,37.1066499 25.7379984,36.1731493 C24.6704638,35.2396487 23.0951993,34.7728984 21.012205,34.7728984 L12.5760781,34.7728984 L12.4198535,33.4504391 Z" id="Shape"></path>
                <path d="M65.7705452,0 L65.7705452,29.0941029 C67.1244915,25.567545 69.012205,23.1300711 71.4336859,21.7816813 C73.8551668,20.4332915 76.3938161,19.7590966 79.0496338,19.7590966 C81.0284784,19.7590966 82.6818552,20.0184023 84.009764,20.5370138 C85.3376729,21.0556253 86.4442636,21.7816813 87.3295362,22.7151819 C88.3189585,23.7524049 89.0219691,25.0489335 89.4385679,26.6047679 C89.8551668,28.1606023 90.0634662,30.2609787 90.0634662,32.9058971 L90.0634662,53.6762861 C90.0634662,55.8544542 90.5191212,57.3324969 91.4304312,58.1104141 C92.3417413,58.8883312 93.8649308,59.2772898 96,59.2772898 L96,60.9109159 C95.1147274,60.8590548 93.7607811,60.7942284 91.9381611,60.7164366 C90.1155411,60.6386449 88.3449959,60.5997491 86.6265256,60.5997491 C84.9080553,60.5997491 83.2286412,60.6386449 81.5882832,60.7164366 C79.9479251,60.7942284 78.7111473,60.8590548 77.8779496,60.9109159 L77.8779496,59.2772898 C79.7526444,59.2772898 81.0805533,58.8883312 81.8616762,58.1104141 C82.642799,57.3324969 83.0333605,55.8544542 83.0333605,53.6762861 L83.0333605,31.1944793 C83.0333605,29.5867838 82.9031733,28.1087411 82.642799,26.7603513 C82.3824247,25.4119615 81.7965826,24.3228775 80.8852726,23.4930991 C79.9739626,22.6633208 78.5809601,22.2484316 76.7062653,22.2484316 C74.5711961,22.2484316 72.6834825,22.8448348 71.0431245,24.0376412 C69.4027665,25.2304475 68.1139138,26.8900042 67.1765663,29.0163112 C66.2392189,31.1426182 65.7705452,33.580092 65.7705452,36.3287327 L65.7705452,53.6762861 C65.7705452,55.8544542 66.1611066,57.3324969 66.9422295,58.1104141 C67.7233523,58.8883312 69.0512612,59.2772898 70.9259561,59.2772898 L70.9259561,60.9109159 C70.0927583,60.8590548 68.8559805,60.7942284 67.2156225,60.7164366 C65.5752644,60.6386449 63.8958503,60.5997491 62.17738,60.5997491 C60.4589097,60.5997491 58.6883645,60.6386449 56.8657445,60.7164366 C55.0431245,60.7942284 53.6891782,60.8590548 52.8039056,60.9109159 L52.8039056,59.2772898 C54.9389748,59.2772898 56.4621644,58.8883312 57.3734744,58.1104141 C58.2847844,57.3324969 58.7404394,55.8544542 58.7404394,53.6762861 L58.7404394,9.33500627 C58.7404394,7.00125471 58.3238405,5.2768716 57.4906428,4.16185696 C56.6574451,3.04684233 55.0951993,2.48933501 52.8039056,2.48933501 L52.8039056,0.855708908 C54.4703011,1.01129235 56.0846216,1.08908407 57.6468674,1.08908407 C59.1570382,1.08908407 60.6021155,0.99832706 61.9820993,0.816813049 C63.362083,0.635299038 64.6248983,0.363028022 65.7705452,0 Z" id="Path"></path>
            </g>
        </g>
    </g>
</svg>