<?xml version="1.0" encoding="UTF-8"?>
<svg width="256px" height="256px" viewBox="0 0 256 256" version="1.1" xmlns="http://www.w3.org/2000/svg" xmlns:xlink="http://www.w3.org/1999/xlink">
    <title>logo-sm-256</title>
    <g id="logo-sm-256" stroke="none" stroke-width="1" fill="none" fill-rule="evenodd">
        <g id="logo-sm-vector">
            <rect id="Rectangle-3" fill="#F5F5F5" x="0" y="0" width="256" height="256"></rect>
            <polygon id="Rectangle-2" fill="#F8DC5B" points="256 0 256 256 0 256"></polygon>
            <g id="Rh" transform="translate(28.000000, 70.000000)" fill="#000000" fill-rule="nonzero">
                <path d="M0,11.6687578 C2.18714402,11.7724801 5.05126119,11.8762024 8.59235151,11.9799247 C12.1334418,12.083647 15.6224573,12.1355082 19.0593979,12.1355082 C23.9544345,12.1355082 28.6411717,12.083647 33.1196094,11.9799247 C37.5980472,11.8762024 40.7746135,11.8243413 42.6493084,11.8243413 C51.0854353,11.8243413 58.0895037,13.0171476 63.6615134,15.4027604 C69.2335232,17.7883731 73.3995118,21.0296947 76.1594793,25.1267252 C78.9194467,29.2237558 80.2994304,33.8134672 80.2994304,38.8958595 C80.2994304,42.0075282 79.6745321,45.3266416 78.4247356,48.8531995 C77.174939,52.3797574 75.0138324,55.6988708 71.9414158,58.8105395 C68.8689992,61.9222083 64.6769731,64.489335 59.3653377,66.5119197 C54.0537022,68.5345044 47.3360456,69.5457967 39.2123678,69.5457967 L24.2148088,69.5457967 L24.2148088,66.434128 L37.6501221,66.434128 C45.0447518,66.434128 50.6948739,65.2672522 54.6004882,62.9335006 C58.5061025,60.5997491 61.1619203,57.4880803 62.5679414,53.5984944 C63.9739626,49.7089084 64.6769731,45.3785027 64.6769731,40.6072773 C64.6769731,32.4132162 62.724166,26.0602258 58.8185517,21.5483061 C54.9129373,17.0363864 48.2213181,14.7804266 38.7436941,14.7804266 C33.9528072,14.7804266 30.8283157,15.6620661 29.3702197,17.425345 C27.9121237,19.188624 27.1830757,22.7670431 27.1830757,28.1606023 L27.1830757,105.329987 C27.1830757,109.06399 27.4955248,111.864492 28.1204231,113.731493 C28.7453214,115.598494 29.9690806,116.843162 31.7917006,117.465496 C33.6143206,118.087829 36.2961758,118.502719 39.8372661,118.710163 L39.8372661,121.821832 C37.4418226,121.614387 34.4475183,121.484734 30.8543531,121.432873 C27.261188,121.381012 23.6419854,121.355082 19.9967453,121.355082 C15.9349064,121.355082 12.1334418,121.381012 8.59235151,121.432873 C5.05126119,121.484734 2.18714402,121.614387 0,121.821832 L0,118.710163 C3.54109032,118.502719 6.22294548,118.087829 8.0455655,117.465496 C9.86818552,116.843162 11.0919447,115.598494 11.716843,113.731493 C12.3417413,111.864492 12.6541904,109.06399 12.6541904,105.329987 L12.6541904,28.1606023 C12.6541904,24.3228775 12.3417413,21.496445 11.716843,19.6813049 C11.0919447,17.8661648 9.86818552,16.6214973 8.0455655,15.9473024 C6.22294548,15.2731075 3.54109032,14.8841489 0,14.7804266 L0,11.6687578 Z M24.8397071,66.9008783 C30.4637917,67.1083229 34.8901546,67.341698 38.1187958,67.6010038 C41.3474369,67.8603095 43.9772172,68.0936847 46.0081367,68.3011292 C48.0390561,68.5085738 49.9918633,68.7678795 51.8665582,69.0790464 C58.8445891,70.2199916 63.8698129,72.320368 66.9422295,75.3801757 C70.0146461,78.4399833 72.2799024,83.1852781 73.7379984,89.6160602 L77.6436127,105.485571 C78.6851098,110.049352 79.7526444,113.342535 80.8462164,115.365119 C81.9397884,117.387704 83.6322213,118.347135 85.9235151,118.243413 C87.6940602,118.139691 89.1781937,117.569218 90.3759154,116.531995 C91.5736371,115.494772 92.8494711,114.094521 94.2034174,112.331242 L96.546786,114.04266 C94.359642,117.258051 92.0943857,119.721455 89.7510171,121.432873 C87.4076485,123.144291 84.100895,124 79.8307567,124 C75.9772172,124 72.5923515,122.859055 69.6761595,120.577164 C66.7599675,118.295274 64.5728234,113.835215 63.1147274,107.196989 L59.6777868,91.6386449 C58.7404394,87.1785864 57.6729048,83.314931 56.4751831,80.0476788 C55.2774614,76.7804266 53.6110659,74.2132999 51.4759967,72.3462986 C49.3409276,70.4792974 46.1903987,69.5457967 42.0244101,69.5457967 L25.1521562,69.5457967 L24.8397071,66.9008783 Z" id="Shape"></path>
                <path d="M131.54109,0 L131.54109,58.1882058 C134.248983,51.1350899 138.02441,46.2601422 142.867372,43.5633626 C147.710334,40.866583 152.787632,39.5181932 158.099268,39.5181932 C162.056957,39.5181932 165.36371,40.0368047 168.019528,41.0740276 C170.675346,42.1112505 172.888527,43.5633626 174.659072,45.4303639 C176.637917,47.5048097 178.043938,50.097867 178.877136,53.2095358 C179.710334,56.3212045 180.126932,60.5219573 180.126932,65.8117942 L180.126932,107.352572 C180.126932,111.708908 181.038242,114.664994 182.860862,116.220828 C184.683483,117.776662 187.729862,118.55458 192,118.55458 L192,121.821832 C190.229455,121.71811 187.521562,121.588457 183.876322,121.432873 C180.231082,121.27729 176.689992,121.199498 173.253051,121.199498 C169.816111,121.199498 166.457282,121.27729 163.176566,121.432873 C159.89585,121.588457 157.422295,121.71811 155.755899,121.821832 L155.755899,118.55458 C159.505289,118.55458 162.161107,117.776662 163.723352,116.220828 C165.285598,114.664994 166.066721,111.708908 166.066721,107.352572 L166.066721,62.3889586 C166.066721,59.1735675 165.806347,56.2174822 165.285598,53.5207026 C164.764849,50.823923 163.593165,48.6457549 161.770545,46.9861982 C159.947925,45.3266416 157.16192,44.4968632 153.412531,44.4968632 C149.142392,44.4968632 145.366965,45.6896696 142.086249,48.0752823 C138.805533,50.460895 136.227828,53.7800084 134.353133,58.0326223 C132.478438,62.2852363 131.54109,67.160184 131.54109,72.6574655 L131.54109,107.352572 C131.54109,111.708908 132.322213,114.664994 133.884459,116.220828 C135.446705,117.776662 138.102522,118.55458 141.851912,118.55458 L141.851912,121.821832 C140.185517,121.71811 137.711961,121.588457 134.431245,121.432873 C131.150529,121.27729 127.791701,121.199498 124.35476,121.199498 C120.917819,121.199498 117.376729,121.27729 113.731489,121.432873 C110.086249,121.588457 107.378356,121.71811 105.607811,121.821832 L105.607811,118.55458 C109.87795,118.55458 112.924329,117.776662 114.746949,116.220828 C116.569569,114.664994 117.480879,111.708908 117.480879,107.352572 L117.480879,18.6700125 C117.480879,14.0025094 116.647681,10.5537432 114.981286,8.32371393 C113.31489,6.09368465 110.190399,4.97867001 105.607811,4.97867001 L105.607811,1.71141782 C108.940602,2.02258469 112.169243,2.17816813 115.293735,2.17816813 C118.314076,2.17816813 121.204231,1.99665412 123.964199,1.6336261 C126.724166,1.27059808 129.249797,0.726056043 131.54109,0 Z" id="Path"></path>
            </g>
        </g>
    </g>
</svg>