<?xml version="1.0" standalone="no"?>
<!DOCTYPE svg PUBLIC "-//W3C//DTD SVG 20010904//EN"
 "http://www.w3.org/TR/2001/REC-SVG-20010904/DTD/svg10.dtd">
<svg version="1.0" xmlns="http://www.w3.org/2000/svg"
 width="700.000000pt" height="700.000000pt" viewBox="0 0 700.000000 700.000000"
 preserveAspectRatio="xMidYMid meet">
<metadata>
Created by potrace 1.14, written by Peter Selinger 2001-2017
</metadata>
<g transform="translate(0.000000,700.000000) scale(0.100000,-0.100000)"
fill="#000000" stroke="none">
<path d="M4303 5070 c-64 -26 -251 -42 -449 -39 l-204 4 0 -41 0 -41 58 -6
c99 -11 134 -26 183 -76 37 -38 50 -61 65 -117 18 -66 19 -122 19 -1384 0
-1022 -3 -1324 -12 -1356 -32 -103 -101 -152 -230 -163 l-78 -6 0 -44 0 -44
110 4 c143 5 652 5 780 0 l100 -4 0 44 0 44 -67 7 c-87 8 -145 40 -175 94 -40
72 -45 162 -40 755 4 588 5 595 56 742 38 108 83 179 166 262 90 91 156 128
268 152 83 17 188 12 257 -12 90 -32 156 -123 181 -251 15 -77 24 -1383 11
-1506 -18 -163 -71 -223 -210 -236 l-67 -7 0 -44 0 -44 100 4 c128 5 637 5
780 0 l110 -4 0 44 0 44 -75 6 c-127 10 -194 54 -231 149 -10 28 -15 189 -20
780 -6 817 -6 814 -69 947 -53 115 -180 218 -310 253 -134 36 -343 29 -478
-16 -209 -70 -318 -164 -424 -368 l-47 -91 -1 788 c0 743 -1 787 -17 786 -10
0 -28 -4 -40 -9z"/>
<path d="M770 4727 l0 -44 74 -7 c151 -14 217 -52 248 -143 17 -52 25 -2393 7
-2495 -12 -76 -39 -123 -85 -150 -18 -10 -80 -26 -138 -35 l-106 -17 0 -37 0
-36 433 1 c237 0 482 -1 542 -3 l110 -4 3 40 3 39 -88 12 c-163 22 -207 46
-239 130 -17 43 -19 97 -22 625 l-3 577 247 0 c279 0 326 -8 405 -64 112 -82
167 -223 274 -706 42 -188 86 -370 99 -406 77 -213 209 -306 429 -305 104 0
182 20 250 63 48 31 154 141 177 184 12 21 10 26 -11 43 -13 11 -27 20 -30 21
-3 0 -37 -31 -75 -69 -60 -60 -76 -70 -125 -81 -50 -11 -60 -10 -103 8 -43 19
-50 28 -81 95 -23 49 -63 191 -123 432 -104 416 -124 472 -211 588 -70 94
-232 175 -415 208 l-69 13 80 17 c105 23 243 75 339 130 93 52 232 186 283
272 99 168 135 389 91 563 -61 241 -232 412 -504 504 -184 63 -198 64 -906 65
-355 1 -671 5 -702 9 l-58 7 0 -44z m1333 -76 c210 -55 334 -182 399 -406 21
-72 23 -100 22 -275 0 -183 -2 -200 -28 -285 -32 -105 -63 -162 -124 -227
-131 -140 -300 -188 -664 -188 l-198 0 0 578 c0 614 4 673 49 746 21 33 68 60
132 77 63 16 326 3 412 -20z"/>
</g>
</svg>
